<svg xmlns="http://www.w3.org/2000/svg" xmlns:xlink="http://www.w3.org/1999/xlink" version="1.1" x="0px" y="0px" viewBox="0 0 100 125" enable-background="new 0 0 100 100" xml:space="preserve"><g><path d="M49.999,9.986C27.9,9.986,9.985,27.901,9.985,50.001c0,22.099,17.915,40.014,40.014,40.014   c22.1,0,40.016-17.915,40.016-40.014C90.015,27.901,72.099,9.986,49.999,9.986z M49.999,74.893   c-13.725,0-24.892-11.166-24.892-24.892s11.167-24.893,24.892-24.893c13.727,0,24.893,11.167,24.893,24.893   S63.726,74.893,49.999,74.893z"/></g><g><path d="M49.999,72.354c-12.326,0-22.354-10.028-22.354-22.354c0-12.326,10.027-22.354,22.354-22.354s22.355,10.028,22.355,22.354   C72.354,62.326,62.325,72.354,49.999,72.354z M49.999,28.995c-11.582,0-21.005,9.423-21.005,21.006s9.423,21.005,21.005,21.005   c11.584,0,21.007-9.422,21.007-21.005S61.583,28.995,49.999,28.995z"/></g><g><path d="M67.063,50.001c0,0,0.065,0.423,0.141,1.159c0.018,0.185,0.038,0.389,0.06,0.61c0.003,0.226-0.01,0.472-0.017,0.735   c-0.008,0.268-0.018,0.551-0.027,0.851c-0.004,0.304-0.082,0.602-0.123,0.926c-0.053,0.323-0.107,0.66-0.164,1.01   c-0.089,0.34-0.197,0.689-0.301,1.051c-0.18,0.737-0.529,1.456-0.846,2.222c-0.404,0.718-0.78,1.495-1.318,2.185   c-0.477,0.733-1.098,1.369-1.688,2.032c-0.662,0.588-1.297,1.211-2.031,1.688c-0.688,0.539-1.467,0.914-2.184,1.319   c-0.768,0.315-1.484,0.667-2.222,0.846c-0.361,0.104-0.712,0.204-1.052,0.302c-0.35,0.057-0.687,0.11-1.01,0.163   c-0.324,0.041-0.625,0.12-0.924,0.123c-0.296,0.009-0.577,0.018-0.841,0.025c-0.263,0.007-0.507,0.019-0.732,0.018   c-0.227-0.022-0.435-0.043-0.622-0.06c-0.748-0.075-1.164-0.144-1.164-0.144s0.421-0.109,1.137-0.258   c0.178-0.036,0.375-0.078,0.59-0.123c0.211-0.069,0.439-0.128,0.682-0.199c0.483-0.137,1.025-0.282,1.594-0.51   c0.285-0.105,0.581-0.215,0.887-0.328c0.297-0.136,0.604-0.276,0.918-0.42c0.316-0.135,0.635-0.285,0.941-0.478   c0.311-0.185,0.637-0.353,0.961-0.533c0.611-0.431,1.276-0.812,1.869-1.318c0.631-0.456,1.188-1.018,1.773-1.545   c0.527-0.584,1.089-1.141,1.545-1.771c0.51-0.592,0.889-1.26,1.32-1.869c0.332-0.662,0.761-1.261,1.011-1.902   c0.144-0.313,0.275-0.623,0.42-0.918c0.113-0.308,0.223-0.603,0.327-0.888c0.229-0.572,0.373-1.104,0.509-1.584   c0.071-0.239,0.13-0.466,0.2-0.677c0.044-0.219,0.085-0.42,0.122-0.602C66.954,50.414,67.063,50.001,67.063,50.001z"/></g><text x="0" y="115" fill="#000000" font-size="5px" font-weight="bold" font-family="'Helvetica Neue', Helvetica, Arial-Unicode, Arial, Sans-serif">Created by Bakunetsu Kaito</text><text x="0" y="120" fill="#000000" font-size="5px" font-weight="bold" font-family="'Helvetica Neue', Helvetica, Arial-Unicode, Arial, Sans-serif">from the Noun Project</text></svg>